<svg width="36" height="36" viewBox="0 0 36 36" fill="none" xmlns="http://www.w3.org/2000/svg">
<path d="M9.8745 10.8571C14.385 11.6521 17.073 13.3156 18 14.2711C18.927 13.3156 21.615 11.6521 26.127 10.8571C28.4115 10.4536 29.5545 10.2526 30.5265 11.0251C31.5 11.7961 31.5 13.0501 31.5 15.5581V24.5686C31.5 26.8621 31.5 28.0081 30.876 28.7236C30.2505 29.4391 28.8765 29.6821 26.127 30.1666C23.6745 30.5986 21.762 31.2871 20.3775 31.9786C19.014 32.6596 18.333 33.0001 18 33.0001M18 33.0001C17.667 33.0001 16.9845 32.6596 15.6225 31.9801C14.238 31.2871 12.3255 30.5986 9.8745 30.1651C7.1235 29.6821 5.7495 29.4391 5.124 28.7236C4.4985 28.0081 4.5 26.8621 4.5 24.5686V15.5581C4.5 13.0501 4.5 11.7961 5.4735 11.0251C6.4455 10.2526 7.5885 10.4551 9.873 10.8571M18 33.0001V13.5001M12.75 4.58857C14.3048 3.55056 16.1329 2.99783 18.0023 3.0005C19.8717 3.00317 21.6982 3.56112 23.25 4.60357M20.433 8.25007C19.7001 7.80484 18.8596 7.56815 18.0021 7.5655C17.1446 7.56286 16.3026 7.79437 15.567 8.23507" stroke="#15265E" stroke-width="1.5" stroke-linecap="round" stroke-linejoin="round"/>
</svg>
