<svg width="190" height="64" viewBox="0 0 190 64" fill="none" xmlns="http://www.w3.org/2000/svg">
<path d="M76.0487 25.8259H79.1192V38.7807H76.1013L75.9434 36.8886C75.2123 38.4137 73.1843 39.1492 71.7382 39.1755C67.9015 39.2018 65.0635 36.8361 65.0635 32.2902C65.0635 27.8233 68.0331 25.4839 71.8172 25.5102C73.5513 25.5102 75.2079 26.3261 75.9434 27.6128L76.0487 25.826V25.8259ZM68.2744 32.2901C68.2744 34.7612 69.9822 36.238 72.1111 36.238C77.1571 36.238 77.1571 28.3803 72.1111 28.3803C69.9778 28.3715 68.2744 29.8205 68.2744 32.2901Z" fill="#B89B45"/>
<path d="M83.96 20.4129V38.7806H80.7798V20.4129H83.96Z" fill="#B89B45"/>
<path d="M90.24 22.1733V25.8521H93.8135V28.6112H90.2078V34.2084C90.2078 35.4438 90.8906 36.0478 91.8893 36.0478C92.4285 36.0323 92.9589 35.8974 93.4407 35.6543L94.3342 38.387C93.4927 38.7368 92.591 38.9252 91.6805 38.9383C88.8688 39.0436 87.0279 37.4411 87.0279 34.2083L87.0276 28.6112H84.6165V25.8521H87.0335V22.514L90.24 22.1733Z" fill="#B89B45"/>
<path d="M97.886 33.4467C98.0965 35.0551 99.4943 36.2058 101.749 36.2058C102.932 36.2058 104.482 35.7671 105.217 34.9966L107.264 37.0202C105.899 38.4399 103.664 39.1228 101.693 39.1228C97.2266 39.1228 94.5728 36.3637 94.5728 32.2111C94.5728 28.2633 97.2529 25.4312 101.457 25.4312C105.793 25.4312 108.5 28.1128 108 33.4467H97.886V33.4467ZM104.929 30.7928C104.719 29.1114 103.404 28.2691 101.566 28.2691C99.8321 28.2691 98.4138 29.1114 97.9401 30.7928H104.929Z" fill="#B89B45"/>
<path d="M112.393 25.8258L112.63 27.323C113.628 25.7146 114.969 25.4836 116.285 25.4836C117.626 25.4836 118.917 26.0099 119.623 26.7191L118.177 29.5044C117.521 28.9532 116.915 28.6636 115.864 28.6636C114.182 28.6636 112.633 29.557 112.633 31.9491V38.7803L109.423 38.7804V25.8257H112.393V25.8258Z" fill="#B89B45"/>
<path d="M129.315 38.7805V32.0019C129.315 30.0309 128.239 28.5322 126.189 28.5322C124.218 28.5322 122.877 30.1873 122.877 32.1583V38.7805H119.698V25.7994H122.562L122.772 27.554C124.088 26.2673 125.404 25.6093 127.029 25.6093C130.078 25.6093 132.521 27.8961 132.521 31.9696V38.7745L129.315 38.7804L129.315 38.7805Z" fill="#B89B45"/>
<path d="M144.506 25.8259H147.577V38.7807H144.556L144.398 36.8886C143.667 38.4137 141.639 39.1492 140.193 39.1755C136.356 39.2018 133.518 36.8361 133.518 32.2902C133.518 27.8233 136.488 25.4839 140.272 25.5102C142.006 25.5102 143.662 26.3261 144.398 27.6128L144.506 25.826V25.8259ZM136.727 32.2901C136.727 34.7612 138.435 36.238 140.564 36.238C145.61 36.238 145.61 28.3803 140.564 28.3803C138.435 28.3715 136.727 29.8205 136.727 32.2901Z" fill="#B89B45"/>
<path d="M153.205 22.1733V25.8521H156.778V28.6112H153.178V34.2084C153.178 35.4438 153.861 36.0478 154.86 36.0478C155.399 36.0323 155.93 35.8974 156.411 35.6543L157.305 38.387C156.464 38.7374 155.56 38.9252 154.65 38.9383C151.838 39.0436 149.999 37.4411 149.999 34.2082L149.998 28.6112H147.581V25.8521H149.998V22.514L153.205 22.1733Z" fill="#B89B45"/>
<path d="M161.614 22.1733C161.614 24.6692 157.83 24.6692 157.83 22.1733C157.83 19.6774 161.614 19.6774 161.614 22.1733ZM158.119 25.7732V38.7864H161.324V25.7732H158.119Z" fill="#B89B45"/>
<path d="M176.591 25.7994L171.073 38.8331L167.604 38.8331L162.06 25.7994L165.554 25.7994L167.341 30.0836L169.339 35.5491L171.309 30.1391L173.096 25.8038L176.591 25.7994Z" fill="#B89B45"/>
<path d="M179.824 33.4467C180.035 35.0551 181.432 36.2058 183.687 36.2058C184.87 36.2058 186.42 35.7671 187.157 34.9966L189.204 37.0202C187.838 38.4399 185.604 39.1228 183.633 39.1228C179.166 39.1228 176.512 36.3637 176.512 32.2111C176.512 28.2633 179.192 25.4312 183.396 25.4312C187.733 25.4312 190.439 28.1128 189.941 33.4467H179.824V33.4467ZM186.867 30.7928C186.657 29.1114 185.342 28.2691 183.504 28.2691C181.77 28.2691 180.352 29.1114 179.878 30.7928H186.867Z" fill="#B89B45"/>
<path d="M68.2685 40.7173V47.8922C69.0303 46.5514 71.1592 45.8158 72.5264 45.8158C76.3104 45.8158 79.1222 48.129 79.1222 52.5959C79.1222 56.8522 76.2578 59.3759 72.4474 59.3759C70.8698 59.3759 69.2673 58.8495 68.2686 57.2996L68.058 59.0864L65.0635 59.0864V40.7173H68.2685V40.7173ZM68.4791 52.5959C68.4791 54.9353 70.2132 56.4062 72.2368 56.4062C74.2839 56.4062 75.9156 54.8563 75.9156 52.5959C75.9156 50.2564 74.2868 48.8118 72.2368 48.8118C70.2132 48.8118 68.4791 50.3354 68.4791 52.5959Z" fill="#B89B45"/>
<path d="M91.7679 46.1316H94.8383V59.0863H91.8263L91.6684 57.1943C90.9373 58.7193 88.9093 59.4549 87.4646 59.4811C83.6279 59.5074 80.7899 57.1417 80.7899 52.5959C80.7899 48.1289 83.758 45.7895 87.5422 45.8158C89.2777 45.8158 90.9329 46.6303 91.6684 47.9184L91.7679 46.1316V46.1316ZM83.9891 52.5958C83.9891 55.0653 85.6969 56.5436 87.8259 56.5436C92.8718 56.5436 92.8718 48.6859 87.8259 48.6859C85.6969 48.6801 83.9891 50.1276 83.9891 52.5958Z" fill="#B89B45"/>
<path d="M106.407 59.0864V52.3063C106.407 50.3353 105.33 48.8381 103.281 48.8381C101.31 48.8381 99.9694 50.4933 99.9694 52.4643V59.0864L96.7892 59.0864V46.1053H99.655L99.8641 47.8599C101.18 46.5717 102.496 45.9152 104.122 45.9152C107.171 45.9152 109.614 48.202 109.614 52.2741V59.0804L106.407 59.0863L106.407 59.0864Z" fill="#B89B45"/>
<path d="M114.638 40.7171V51.3338L119.001 46.1314H122.837V46.3157L117.555 52.2272L123.573 58.8494V59.0862H119.71L114.638 53.2258V59.0862H111.433V40.7171H114.638Z" fill="#B89B45"/>
<path d="M70.687 1.90938V5.5882H74.2605V8.34729H70.6621V13.9445C70.6621 15.1799 71.345 15.7839 72.3436 15.7839C72.8825 15.7692 73.4131 15.6339 73.8938 15.3903L74.7855 18.1203C73.945 18.4716 73.0418 18.6592 72.1315 18.6714C69.3198 18.7767 67.4804 17.1742 67.4804 13.9413L67.4805 8.34729H65.0635V5.5882H67.4805V2.25156L70.687 1.90938Z" fill="#B89B45"/>
<path d="M78.5425 0.122627V7.32231C79.6991 5.82509 81.1189 5.37762 82.5898 5.37762C86.2686 5.37762 87.8989 7.87501 87.8989 11.6853V18.518H84.6982V11.7117C84.6982 9.3459 83.4627 8.34876 81.7549 8.34876C79.8629 8.34876 78.5484 9.95711 78.5484 11.8974V18.5195H75.3405V0.122574H78.5426L78.5425 0.122627Z" fill="#B89B45"/>
<path d="M92.0253 13.1828C92.2344 14.7911 93.6337 15.9418 95.8868 15.9418C97.0698 15.9418 98.6211 15.5031 99.3566 14.7341L101.404 16.7562C100.036 18.176 97.8023 18.8588 95.8328 18.8588C91.3644 18.8588 88.7106 16.0998 88.7106 11.9472C88.7106 8.00666 91.3908 5.16862 95.5959 5.16862C99.9312 5.16862 102.638 7.84882 102.139 13.1828L92.0253 13.1828V13.1828ZM99.0671 10.5289C98.8565 8.84744 97.5434 8.00661 95.7041 8.00661C93.9685 8.00661 92.5502 8.84744 92.0779 10.5289H99.0671Z" fill="#B89B45"/>
<path d="M8.45855 28.3814L0.630615 36.0402L5.90531 26.4118L16.249 12.6292L22.6942 10.3118L8.45855 28.3814Z" fill="#B89B45"/>
<path d="M8.43341 41.411L0 49.7002L5.78529 39.5584L29.5113 7.8615L36.8755 5.21327L8.43341 41.411Z" fill="#B89B45"/>
<path d="M15.0104 46.0116L3.1449 58.6039L12.1942 44.0444L43.0028 3.00954L50.8692 0.229324L15.0104 46.0116Z" fill="#B89B45"/>
<path d="M50.9181 13.0605L21.5091 50.5578L9.50854 63.3303L18.692 48.5879L50.9181 5.65965V13.0605Z" fill="#B89B45"/>
<path d="M50.9188 25.7141L27.9269 55.0465L19.0803 63.8772L25.2656 53.1856L50.9188 18.8855V25.7141Z" fill="#B89B45"/>
<path d="M50.9196 38.2893L40.258 51.8451L32.3563 59.5577L37.6782 49.9407L50.9196 32.2585V38.2893Z" fill="#B89B45"/>
</svg>
