<svg width="48" height="48" viewBox="0 0 48 48" fill="none" xmlns="http://www.w3.org/2000/svg">
<path d="M29.508 20C31.44 20 33.008 21.568 33.008 23.5V30H33V30.5C33 30.8978 32.842 31.2794 32.5607 31.5607C32.2794 31.842 31.8978 32 31.5 32C31.1022 32 30.7206 31.842 30.4393 31.5607C30.158 31.2794 30 30.8978 30 30.5V26H30.008V23.5C30.008 23.3674 29.9553 23.2402 29.8616 23.1464C29.7678 23.0527 29.6406 23 29.508 23H18.504C18.3714 23 18.2442 23.0527 18.1504 23.1464C18.0567 23.2402 18.004 23.3674 18.004 23.5V30H18V30.5C18 30.8978 17.842 31.2794 17.5607 31.5607C17.2794 31.842 16.8978 32 16.5 32C16.1022 32 15.7206 31.842 15.4393 31.5607C15.158 31.2794 15 30.8978 15 30.5V26H15.004V23.5C15.004 21.568 16.57 20 18.504 20H29.508ZM41 23.5V30.5C41 30.8978 41.158 31.2794 41.4393 31.5607C41.7206 31.842 42.1022 32 42.5 32C42.8978 32 43.2794 31.842 43.5607 31.5607C43.842 31.2794 44 30.8978 44 30.5V23.5C44 22.5717 43.6312 21.6815 42.9749 21.0251C42.3185 20.3687 41.4283 20 40.5 20H33.75C34.436 20.83 34.884 21.864 34.986 23H40.5C40.6326 23 40.7598 23.0527 40.8536 23.1464C40.9473 23.2402 41 23.3674 41 23.5ZM4 30.5C4 30.8978 4.15804 31.2794 4.43934 31.5607C4.72064 31.842 5.10218 32 5.5 32C5.89782 32 6.27936 31.842 6.56066 31.5607C6.84196 31.2794 7 30.8978 7 30.5V23.5C7 23.3674 7.05268 23.2402 7.14645 23.1464C7.24021 23.0527 7.36739 23 7.5 23H13.026C13.1257 21.8982 13.5566 20.8523 14.262 20H7.5C6.57174 20 5.6815 20.3687 5.02513 21.0251C4.36875 21.6815 4 22.5717 4 23.5V30.5ZM24 6C25.5913 6 27.1174 6.63214 28.2426 7.75736C29.3679 8.88258 30 10.4087 30 12C30 13.5913 29.3679 15.1174 28.2426 16.2426C27.1174 17.3679 25.5913 18 24 18C22.4087 18 20.8826 17.3679 19.7574 16.2426C18.6321 15.1174 18 13.5913 18 12C18 10.4087 18.6321 8.88258 19.7574 7.75736C20.8826 6.63214 22.4087 6 24 6ZM24 9C23.2044 9 22.4413 9.31607 21.8787 9.87868C21.3161 10.4413 21 11.2044 21 12C21 12.7956 21.3161 13.5587 21.8787 14.1213C22.4413 14.6839 23.2044 15 24 15C24.7956 15 25.5587 14.6839 26.1213 14.1213C26.6839 13.5587 27 12.7956 27 12C27 11.2044 26.6839 10.4413 26.1213 9.87868C25.5587 9.31607 24.7956 9 24 9ZM37 8C38.3261 8 39.5979 8.52678 40.5355 9.46447C41.4732 10.4021 42 11.6739 42 13C42 14.3261 41.4732 15.5979 40.5355 16.5355C39.5979 17.4732 38.3261 18 37 18C35.6739 18 34.4021 17.4732 33.4645 16.5355C32.5268 15.5979 32 14.3261 32 13C32 11.6739 32.5268 10.4021 33.4645 9.46447C34.4021 8.52678 35.6739 8 37 8ZM37 11C36.4696 11 35.9609 11.2107 35.5858 11.5858C35.2107 11.9609 35 12.4696 35 13C35 13.5304 35.2107 14.0391 35.5858 14.4142C35.9609 14.7893 36.4696 15 37 15C37.5304 15 38.0391 14.7893 38.4142 14.4142C38.7893 14.0391 39 13.5304 39 13C39 12.4696 38.7893 11.9609 38.4142 11.5858C38.0391 11.2107 37.5304 11 37 11ZM11 8C12.3261 8 13.5979 8.52678 14.5355 9.46447C15.4732 10.4021 16 11.6739 16 13C16 14.3261 15.4732 15.5979 14.5355 16.5355C13.5979 17.4732 12.3261 18 11 18C9.67392 18 8.40215 17.4732 7.46447 16.5355C6.52678 15.5979 6 14.3261 6 13C6 11.6739 6.52678 10.4021 7.46447 9.46447C8.40215 8.52678 9.67392 8 11 8ZM11 11C10.4696 11 9.96086 11.2107 9.58579 11.5858C9.21071 11.9609 9 12.4696 9 13C9 13.5304 9.21071 14.0391 9.58579 14.4142C9.96086 14.7893 10.4696 15 11 15C11.5304 15 12.0391 14.7893 12.4142 14.4142C12.7893 14.0391 13 13.5304 13 13C13 12.4696 12.7893 11.9609 12.4142 11.5858C12.0391 11.2107 11.5304 11 11 11ZM5.5 34C5.10218 34 4.72064 34.158 4.43934 34.4393C4.15804 34.7206 4 35.1022 4 35.5V36.5C4 38.4891 4.79018 40.3968 6.1967 41.8033C7.60322 43.2098 9.51088 44 11.5 44H36.5C38.4891 44 40.3968 43.2098 41.8033 41.8033C43.2098 40.3968 44 38.4891 44 36.5V35.5C44 35.1022 43.842 34.7206 43.5607 34.4393C43.2794 34.158 42.8978 34 42.5 34H5.5ZM11.5 41C10.3931 41 9.32509 40.592 8.50008 39.8541C7.67508 39.1161 7.15099 38.1 7.028 37H40.972C40.849 38.1 40.3249 39.1161 39.4999 39.8541C38.6749 40.592 37.6069 41 36.5 41H11.5Z" fill="#15265E"/>
</svg>
