<svg width="48" height="48" viewBox="0 0 48 48" fill="none" xmlns="http://www.w3.org/2000/svg">
<path d="M25 26.6C24.6 25.6 24.6 24.8 24.8 24H6V9L18 17L30 9V12.4C31.2 11.8 32.2 11.8 32.8 11.8C33 11.6 33.4 11.4 33.8 11.2V5.2C34 3.4 32.6 2 30.8 2H5.2C3.4 2 2 3.4 2 5.2V24.8C2 26.6 3.4 28 5.2 28H25.8C25.4 27.6 25.2 27.2 25 26.6ZM30 6L18 14L6 6H30ZM45.2 19.8C44.8 18.6 43.8 18.4 43.2 17.8C42.8 17.2 42.8 16 41.8 15.4C40.8 14.6 39.8 15 39 14.8C38.2 14.6 37.6 13.6 36.4 13.6C35.2 13.6 34.6 14.4 33.8 14.8C33 15 32 14.6 31 15.4C30 16 30.2 17 29.6 17.8C29 18.4 28 18.8 27.6 19.8C27.2 21 28 21.8 28 22.6C28 23.4 27.2 24.2 27.6 25.4C28 26.6 29 26.8 29.6 27.4C30 28 30 29.2 31 29.8C32 30.6 33 30.2 33.8 30.4C34.6 30.6 35.2 31.6 36.4 31.6C37.6 31.6 38.2 30.8 39 30.4C39.8 30.2 40.8 30.6 41.8 29.8C42.8 29 42.8 28 43.2 27.4C43.8 26.8 44.8 26.4 45.2 25.4C45.6 24.2 44.8 23.4 44.8 22.6C44.8 21.8 45.6 21 45.2 19.8ZM36.4 28.8C33 28.8 30.4 26 30.4 22.8C30.4 19.6 33.2 16.8 36.4 16.8C39.6 16.8 42.4 19.6 42.4 22.8C42.4 26 39.8 28.8 36.4 28.8ZM39.4 22.6C39.4 24.2 38 25.6 36.4 25.6C34.8 25.6 33.4 24.2 33.4 22.6C33.4 21 34.8 19.6 36.4 19.6C38 19.6 39.4 21 39.4 22.6ZM39 34.2L38 39.6L36.8 45.8L32.8 42L28 44.2L30 32.8C30.8 33.2 31.8 33.4 32.8 33.4C33.4 33.8 34.2 34.2 34.8 34.4C35.2 34.6 35.8 34.6 36.4 34.6C37.4 34.8 38.2 34.6 39 34.2ZM45.4 39L41.4 37.6L42.2 33.2L43.4 32.6L43.6 32.4L45.4 39Z" fill="#15265E"/>
</svg>
