<svg width="36" height="36" viewBox="0 0 36 36" fill="none" xmlns="http://www.w3.org/2000/svg">
<g clip-path="url(#clip0_184_688)">
<path d="M12 16.5C13.9891 16.5 15.8968 15.7098 17.3033 14.3033C18.7098 12.8968 19.5 10.9891 19.5 9C19.5 7.01088 18.7098 5.10322 17.3033 3.6967C15.8968 2.29018 13.9891 1.5 12 1.5C10.0109 1.5 8.10322 2.29018 6.6967 3.6967C5.29018 5.10322 4.5 7.01088 4.5 9C4.5 10.9891 5.29018 12.8968 6.6967 14.3033C8.10322 15.7098 10.0109 16.5 12 16.5ZM12 16.5C15.0195 16.5 17.658 17.64 19.5345 19.5345C20.647 20.6625 21.4794 22.0358 21.9645 23.544M12 16.5C6 16.5 1.5 21 1.5 27V34.5H16.5M18 28.236L24.285 33L34.5 19.5" stroke="#15265E" stroke-width="2"/>
</g>
<defs>
<clipPath id="clip0_184_688">
<rect width="36" height="36" fill="white"/>
</clipPath>
</defs>
</svg>
