<svg width="24" height="24" viewBox="0 0 24 24" fill="none" xmlns="http://www.w3.org/2000/svg">
<path d="M17.0029 2.556L14.5019 2C14.0019 3 12.9999 3.5 11.9999 3.5C10.9999 3.5 9.99894 3 9.49794 2L6.99694 2.556M17.0029 2.556L17.4339 2.651C18.4419 2.875 19.3479 3.473 19.7139 4.438C20.3749 6.188 20.9189 8.984 20.9959 12.999C21.0059 13.466 21.0099 13.7 20.8629 13.85C20.7159 14 20.4789 14 20.0049 14H17.9659M17.0029 2.556C17.0029 4.866 17.2189 8.871 17.9659 14M6.99694 2.556L6.56494 2.651C5.55794 2.875 4.65194 3.473 4.28694 4.438C3.62494 6.188 3.08194 8.984 3.00394 12.999C2.99394 13.466 2.98994 13.7 3.13694 13.85C3.28394 14 3.52094 14 3.99494 14H6.03394M6.99694 2.556C6.99694 4.866 6.78094 8.871 6.03394 14M17.9659 14C18.1099 14.988 18.3939 16.618 18.6279 17.93C18.8049 18.92 18.8939 19.415 18.5579 20.031C18.2229 20.648 17.8839 20.79 17.2059 21.074C16.0769 21.548 14.3779 22 11.9999 22C9.62294 22 7.92294 21.548 6.79394 21.074C6.11594 20.79 5.77694 20.648 5.44194 20.031C5.10594 19.415 5.19494 18.92 5.37194 17.93C5.60594 16.618 5.88994 14.988 6.03394 14" stroke="#15265E" stroke-width="1.5" stroke-linecap="round" stroke-linejoin="round"/>
<path d="M14.031 3C13.884 6.478 14.119 13.748 18 15M9.97 3C10.116 6.478 9.88 13.748 6 15" stroke="#15265E" stroke-width="1.5" stroke-linecap="round" stroke-linejoin="round"/>
</svg>
