<svg width="30" height="30" viewBox="0 0 30 30" fill="none" xmlns="http://www.w3.org/2000/svg">
<path d="M27.3396 1.13208H2.6623C1.81705 1.13208 1.13184 1.81729 1.13184 2.66255V27.3399C1.13184 28.1851 1.81705 28.8704 2.6623 28.8704H27.3396C28.1849 28.8704 28.8701 28.1851 28.8701 27.3399V2.66255C28.8701 1.81729 28.1849 1.13208 27.3396 1.13208Z" fill="#3D5A98"/>
<path d="M20.2689 28.8679V18.1265H23.8736L24.4127 13.9405H20.2689V11.2687C20.2689 10.0569 20.6064 9.22959 22.3432 9.22959H24.5604V5.47959C23.4867 5.3679 22.4078 5.31469 21.3283 5.32021C18.1361 5.32021 15.9377 7.26553 15.9377 10.8538V13.9405H12.333V18.1265H15.9377V28.8679H20.2689Z" fill="white"/>
</svg>
