<svg width="24" height="25" viewBox="0 0 24 25" fill="none" xmlns="http://www.w3.org/2000/svg">
<g clip-path="url(#clip0_184_588)">
<path d="M6.5 7H22.5V7.25L22.332 7.684C20.907 11.365 20.01 15.804 19.664 20L19.654 20.155M14 24H19.5V23.845C19.5 23.403 19.507 22.955 19.521 22.5M17.5 7V6.5C17.5 5.04131 18.0795 3.64236 19.1109 2.61091C20.1424 1.57946 21.5413 1 23 1M0.5 1L19.655 20.155L23.5 24M1.5 18V17C1.5 16.2044 1.81607 15.4413 2.37868 14.8787C2.94129 14.3161 3.70435 14 4.5 14H8.5C9.29565 14 10.0587 14.3161 10.6213 14.8787C11.1839 15.4413 11.5 16.2044 11.5 17V18H1.5ZM2 18H11C11.3978 18 11.7794 18.158 12.0607 18.4393C12.342 18.7206 12.5 19.1022 12.5 19.5C12.5 19.8978 12.342 20.2794 12.0607 20.5607C11.7794 20.842 11.3978 21 11 21H2C1.60218 21 1.22064 20.842 0.93934 20.5607C0.658035 20.2794 0.5 19.8978 0.5 19.5C0.5 19.1022 0.658035 18.7206 0.93934 18.4393C1.22064 18.158 1.60218 18 2 18ZM1.5 21V24H11.5V21H1.5Z" stroke="#15265E"/>
</g>
<rect x="0.5" y="1" width="23" height="23" stroke="#15265E"/>
<defs>
<clipPath id="clip0_184_588">
<rect y="0.5" width="24" height="24" fill="white"/>
</clipPath>
</defs>
</svg>
