<svg width="36" height="36" viewBox="0 0 36 36" fill="none" xmlns="http://www.w3.org/2000/svg">
<path d="M13.5 21.375H15.75V14.625H13.5V21.375ZM13.5 27V32.625C13.5 32.9234 13.6185 33.2095 13.8295 33.4205C14.0405 33.6315 14.3266 33.75 14.625 33.75H21.375C21.6734 33.75 21.9595 33.6315 22.1705 33.4205C22.3815 33.2095 22.5 32.9234 22.5 32.625V27H20.25V31.5H15.75V27H13.5ZM22.5 21.375V14.625H20.25V21.375H22.5ZM13.5 9H15.75V4.5H20.25V9H22.5V3.375C22.5 3.07663 22.3815 2.79048 22.1705 2.5795C21.9595 2.36853 21.6734 2.25 21.375 2.25H14.625C14.3266 2.25 14.0405 2.36853 13.8295 2.5795C13.6185 2.79048 13.5 3.07663 13.5 3.375V9Z" fill="#15265E"/>
<path d="M28.2374 9L30.7417 11.8125L28.2397 14.625H8.99995V9H28.2374ZM28.7437 6.75H7.87495C7.57658 6.75 7.29043 6.86853 7.07945 7.07951C6.86847 7.29048 6.74995 7.57663 6.74995 7.875V15.75C6.74995 16.0484 6.86847 16.3345 7.07945 16.5455C7.29043 16.7565 7.57658 16.875 7.87495 16.875H28.7437C28.9027 16.875 29.0599 16.8414 29.205 16.7762C29.35 16.7111 29.4796 16.6159 29.5852 16.497L33.0862 12.5595C33.269 12.3536 33.37 12.0878 33.37 11.8125C33.37 11.5372 33.269 11.2714 33.0862 11.0655L29.5852 7.128C29.4796 7.0091 29.35 6.91394 29.205 6.84878C29.0599 6.78362 28.9027 6.74996 28.7437 6.75ZM4.8802 24.1875L7.37995 27H26.6197V21.375H7.3822L4.8802 24.1875ZM6.87595 19.125H27.7424C28.0408 19.125 28.327 19.2435 28.5379 19.4545C28.7489 19.6655 28.8674 19.9516 28.8674 20.25V28.125C28.8674 28.4234 28.7489 28.7095 28.5379 28.9205C28.327 29.1315 28.0408 29.25 27.7424 29.25H6.8737C6.71469 29.25 6.55747 29.2164 6.41242 29.1512C6.26737 29.0861 6.13778 28.9909 6.0322 28.872L2.5312 24.9345C2.34837 24.7286 2.2474 24.4628 2.2474 24.1875C2.2474 23.9122 2.34837 23.6464 2.5312 23.4405L6.0322 19.503C6.13778 19.3841 6.26737 19.2889 6.41242 19.2238C6.55747 19.1586 6.71469 19.125 6.8737 19.125H6.87595Z" fill="#15265E"/>
</svg>
