<svg width="30" height="30" viewBox="0 0 30 30" fill="none" xmlns="http://www.w3.org/2000/svg">
<g clip-path="url(#clip0_184_557)">
<path d="M27.1875 0.703233H2.8125C2.25945 0.697605 1.72675 0.911603 1.33129 1.29827C0.935838 1.68494 0.709925 2.21269 0.703125 2.76573V27.2392C0.711154 27.7914 0.937608 28.3179 1.33293 28.7036C1.72825 29.0893 2.26025 29.3026 2.8125 29.297H27.1875C27.7406 29.3014 28.2729 29.0866 28.6682 28.6997C29.0634 28.3128 29.2895 27.7852 29.2969 27.2321V2.7587C29.287 2.20728 29.0599 1.68205 28.6649 1.29715C28.2699 0.91226 27.739 0.698822 27.1875 0.703233Z" fill="#0076B2"/>
<path d="M4.93589 11.4211H9.18042V25.0782H4.93589V11.4211ZM7.05933 4.62427C7.54615 4.62427 8.02204 4.76866 8.42679 5.03917C8.83154 5.30969 9.14697 5.69417 9.33316 6.14399C9.51935 6.5938 9.56795 7.08873 9.47281 7.56617C9.37766 8.04361 9.14304 8.4821 8.79864 8.82618C8.45424 9.17025 8.01552 9.40445 7.53799 9.49914C7.06046 9.59383 6.56558 9.54476 6.11594 9.35814C5.66631 9.17152 5.28212 8.85573 5.01199 8.45072C4.74186 8.04572 4.59793 7.56969 4.59839 7.08286C4.59901 6.43059 4.85856 5.80524 5.32001 5.34423C5.78146 4.88322 6.40705 4.62427 7.05933 4.62427ZM11.8429 11.4211H15.9117V13.2961H15.9679C16.5351 12.2227 17.9179 11.0907 19.9828 11.0907C24.2812 11.0813 25.0781 13.9102 25.0781 17.5782V25.0782H20.8335V18.4336C20.8335 16.8516 20.8054 14.8149 18.6281 14.8149C16.4507 14.8149 16.0804 16.5399 16.0804 18.3305V25.0782H11.8429V11.4211Z" fill="white"/>
</g>
<defs>
<clipPath id="clip0_184_557">
<rect width="30" height="30" fill="white"/>
</clipPath>
</defs>
</svg>
