<svg width="48" height="48" viewBox="0 0 48 48" fill="none" xmlns="http://www.w3.org/2000/svg">
<path d="M28.2419 20.96C27.8669 20.585 27.3582 20.3744 26.8279 20.3744C26.2976 20.3744 25.789 20.585 25.4139 20.96L23.9999 22.372C23.2455 23.1006 22.2351 23.5038 21.1863 23.4947C20.1375 23.4856 19.1343 23.0649 18.3926 22.3233C17.651 21.5816 17.2303 20.5784 17.2212 19.5296C17.2121 18.4808 17.6153 17.4704 18.3439 16.716L29.6039 5.45199C32.2698 4.84564 35.0589 5.09518 37.5748 6.16514C40.0907 7.23509 42.2052 9.07098 43.6177 11.4118C45.0302 13.7526 45.6687 16.4791 45.4426 19.2036C45.2164 21.9282 44.137 24.5121 42.3579 26.588L38.1419 30.858L28.2419 20.96ZM6.32192 8.93599C8.39088 6.86579 11.0979 5.55434 14.0048 5.21388C16.9118 4.87342 19.8486 5.52388 22.3399 7.05999L15.5139 13.888C14.0355 15.3634 13.1928 17.3586 13.1658 19.4471C13.1388 21.5356 13.9297 23.5519 15.3695 25.0651C16.8093 26.5782 18.7837 27.4683 20.871 27.5451C22.9583 27.6219 24.9928 26.8793 26.5399 25.476L26.8279 25.202L35.3139 33.686L26.8279 42.172C26.0778 42.9219 25.0606 43.3431 23.9999 43.3431C22.9393 43.3431 21.922 42.9219 21.1719 42.172L6.31992 27.32C3.88218 24.882 2.5127 21.5756 2.5127 18.128C2.5127 14.6804 3.88418 11.3739 6.32192 8.93599Z" fill="#15265E"/>
</svg>
