<svg width="24" height="25" viewBox="0 0 24 25" fill="none" xmlns="http://www.w3.org/2000/svg">
<path d="M8.69198 11.75V8.00002C8.69198 7.77602 8.77065 7.58535 8.92798 7.42802C9.08465 7.27068 9.27532 7.19202 9.49998 7.19202C9.72465 7.19202 9.91532 7.27068 10.072 7.42802C10.2293 7.58535 10.308 7.77602 10.308 8.00002V11.75C10.308 11.9747 10.2293 12.1653 10.072 12.322C9.91465 12.4793 9.72398 12.558 9.49998 12.558C9.27598 12.558 9.08532 12.4793 8.92798 12.322C8.77065 12.1647 8.69198 11.974 8.69198 11.75ZM13.039 13.044V4.00002C13.039 3.77602 13.1173 3.58535 13.274 3.42802C13.4313 3.27068 13.622 3.19202 13.846 3.19202C14.0707 3.19202 14.2613 3.27068 14.418 3.42802C14.5753 3.58535 14.654 3.77602 14.654 4.00002V13.044C14.654 13.3133 14.5713 13.5154 14.406 13.65C14.24 13.7847 14.0543 13.852 13.849 13.852C13.6437 13.852 13.457 13.7847 13.289 13.65C13.121 13.5154 13.0376 13.3133 13.039 13.044ZM4.30798 15.186V12C4.30798 11.776 4.38632 11.5854 4.54298 11.428C4.70032 11.2707 4.89132 11.192 5.11598 11.192C5.34065 11.192 5.53132 11.2707 5.68798 11.428C5.84465 11.5854 5.92298 11.776 5.92298 12V15.187C5.92298 15.4564 5.84032 15.658 5.67498 15.792C5.50965 15.9267 5.32398 15.994 5.11798 15.994C4.91265 15.994 4.72598 15.9267 4.55798 15.792C4.39132 15.658 4.30798 15.4564 4.30798 15.187M5.39298 21.05C5.16965 21.05 5.01532 20.9484 4.92998 20.745C4.84465 20.5424 4.88332 20.3594 5.04598 20.196L8.95398 16.289C9.09865 16.1437 9.27698 16.0627 9.48898 16.046C9.70098 16.0294 9.88932 16.0937 10.054 16.239L13.039 18.804L19.792 12.05H18C17.858 12.05 17.7393 12.002 17.644 11.906C17.5486 11.81 17.5006 11.691 17.5 11.549C17.4993 11.407 17.5473 11.2883 17.644 11.193C17.7406 11.0977 17.8593 11.05 18 11.05H20.692C20.9213 11.05 21.1133 11.1273 21.268 11.282C21.4226 11.4367 21.5 11.6287 21.5 11.858V14.55C21.5 14.692 21.452 14.8107 21.356 14.906C21.26 15.0014 21.141 15.0493 20.999 15.05C20.857 15.0507 20.7383 15.0027 20.643 14.906C20.5476 14.8094 20.5 14.6907 20.5 14.55V12.758L13.596 19.662C13.4513 19.8067 13.273 19.8874 13.061 19.904C12.849 19.9207 12.6607 19.8564 12.496 19.711L9.51098 17.146L5.75398 20.904C5.71132 20.944 5.65765 20.9783 5.59298 21.007C5.52832 21.0357 5.46165 21.05 5.39298 21.05Z" fill="#15265E"/>
</svg>
