<svg width="24" height="24" viewBox="0 0 24 24" fill="none" xmlns="http://www.w3.org/2000/svg">
<path d="M12 11.2218C10.7177 10.2738 8.79597 8.61605 3.28626 8.61605V20.4858C8.79597 20.4858 10.7177 22.1435 12 23.0915M12 11.2218V23.0915M12 11.2218C13.2823 10.2738 15.204 8.61605 20.7137 8.61605V20.4858C15.204 20.4858 13.2823 22.1435 12 23.0915M15.4045 0.985761V5.1549M18.4508 0.89319H7.00455C6.68475 0.892801 6.37123 0.981871 6.0994 1.15033L3.0874 3.02576L6.0994 4.89776C6.37123 5.06622 6.68475 5.15529 7.00455 5.1549H18.4508C18.7356 5.16298 19.0192 5.11387 19.2846 5.01046C19.5501 4.90705 19.7922 4.75145 19.9965 4.55286C20.2008 4.35428 20.3632 4.11673 20.4741 3.85429C20.585 3.59184 20.6421 3.30982 20.6421 3.0249C20.6421 2.73999 20.585 2.45797 20.4741 2.19552C20.3632 1.93307 20.2008 1.69553 19.9965 1.49694C19.7922 1.29836 19.5501 1.14276 19.2846 1.03935C19.0192 0.93594 18.7356 0.885109 18.4508 0.89319Z" stroke="#15265E" stroke-linecap="round" stroke-linejoin="round"/>
</svg>
