<svg width="36" height="36" viewBox="0 0 36 36" fill="none" xmlns="http://www.w3.org/2000/svg">
<path d="M35.5091 15.3L31.9218 8.12108C31.8063 7.88978 31.6463 7.68349 31.4511 7.514C31.2558 7.34451 31.0291 7.21514 30.7839 7.13326C30.5387 7.05139 30.2797 7.01862 30.0218 7.03682C29.7639 7.05503 29.5121 7.12385 29.2808 7.23936L25.6865 9.03655L18.215 7.05936C18.0739 7.0228 17.9258 7.0228 17.7847 7.05936L10.3133 9.03655L6.72036 7.23936C6.48899 7.12363 6.23708 7.05463 5.97903 7.03631C5.72098 7.018 5.46185 7.05071 5.21645 7.1326C4.97105 7.21449 4.7442 7.34394 4.54886 7.51354C4.35352 7.68315 4.19352 7.8896 4.07801 8.12108L0.490668 15.3C0.25728 15.7669 0.218908 16.3075 0.38399 16.8027C0.549073 17.298 0.904093 17.7074 1.37098 17.9409L5.18895 19.8506L13.0091 25.4362C13.0939 25.4973 13.1892 25.5422 13.2904 25.5684L22.2904 27.8184C22.3589 27.8356 22.4293 27.8441 22.4999 27.8437C22.7236 27.8435 22.9381 27.7545 23.0961 27.5962L30.8741 19.8183L34.6288 17.9409C35.0957 17.7074 35.4507 17.298 35.6158 16.8027C35.7809 16.3075 35.7425 15.7669 35.5091 15.3ZM28.056 20.2444L23.0216 16.2112C22.8592 16.0813 22.6546 16.0159 22.447 16.0276C22.2394 16.0392 22.0434 16.1272 21.8966 16.2745C19.274 18.9169 16.3419 18.5836 14.473 17.3883C14.4363 17.3656 14.4052 17.3348 14.3823 17.2982C14.3594 17.2616 14.3452 17.2203 14.3408 17.1773C14.3358 17.138 14.3397 17.098 14.3521 17.0603C14.3645 17.0226 14.3851 16.9881 14.4125 16.9594L20.5916 10.9687H25.3532L29.3483 18.959L28.056 20.2444ZM1.98411 16.2689C1.96085 16.1984 1.96641 16.1216 1.99957 16.0551L5.58832 8.87483C5.61191 8.82802 5.64811 8.78873 5.69283 8.7614C5.73756 8.73407 5.78903 8.71978 5.84145 8.72014C5.88489 8.72019 5.92773 8.7303 5.96661 8.74967L9.08989 10.3106L5.24801 18L2.12473 16.439C2.09103 16.4216 2.06119 16.3976 2.03703 16.3683C2.01286 16.3391 1.99486 16.3053 1.98411 16.2689ZM22.2411 26.0662L13.8599 23.9709L6.70207 18.8578L10.8055 10.6523L17.9999 8.74827L20.0811 9.29952C19.922 9.33031 19.7753 9.40707 19.6593 9.5203L13.2327 15.757C13.024 15.9656 12.8649 16.2183 12.7671 16.4966C12.6692 16.7749 12.6352 17.0717 12.6675 17.3649C12.6997 17.6581 12.7975 17.9404 12.9535 18.1907C13.1095 18.4411 13.3198 18.6532 13.5688 18.8114C16.4122 20.6283 19.8618 20.2865 22.5407 17.9831L26.8593 21.4453L22.2411 26.0662ZM34.0157 16.2689C34.0041 16.304 33.9857 16.3365 33.9616 16.3644C33.9375 16.3924 33.9081 16.4154 33.875 16.432L30.7518 18L26.9099 10.3106L30.0332 8.74967C30.0662 8.73306 30.1023 8.72315 30.1392 8.72049C30.1761 8.71784 30.2132 8.7225 30.2483 8.73421C30.2834 8.74578 30.3159 8.76416 30.3439 8.78828C30.3719 8.81241 30.3948 8.84182 30.4114 8.87483L34.0002 16.0551C34.0334 16.1216 34.0389 16.1984 34.0157 16.2689ZM18.2657 30.5789C18.2115 30.7959 18.0734 30.9826 17.8817 31.0978C17.69 31.213 17.4604 31.2474 17.2433 31.1934L11.375 29.7267C11.2738 29.7008 11.1784 29.6559 11.0938 29.5945L7.38551 26.9494C7.20332 26.8188 7.08045 26.6213 7.04392 26.4001C7.00739 26.179 7.06021 25.9524 7.19075 25.7702C7.32128 25.588 7.51885 25.4652 7.73998 25.4286C7.96111 25.3921 8.1877 25.4449 8.36989 25.5755L11.9404 28.125L17.6511 29.5523C17.7589 29.5793 17.8603 29.6272 17.9495 29.6935C18.0387 29.7597 18.114 29.8429 18.1709 29.9383C18.2279 30.0336 18.2655 30.1393 18.2815 30.2493C18.2975 30.3592 18.2916 30.4712 18.2643 30.5789H18.2657Z" fill="#15265E"/>
</svg>
