<svg width="163" height="30" viewBox="0 0 163 30" fill="none" xmlns="http://www.w3.org/2000/svg">
<g clip-path="url(#clip0_184_560)">
<path d="M50.9024 4.63707C50.6039 3.74071 50.0215 2.92354 49.2132 2.26696C48.4049 1.61037 47.3989 1.13729 46.2955 0.894828C42.2558 0 25.9991 0 25.9991 0C25.9991 0 9.74176 0.0271552 5.70274 0.921983C4.59937 1.16448 3.59347 1.63758 2.78522 2.29417C1.97697 2.95075 1.39459 3.7679 1.09608 4.66422C-0.125787 10.4948 -0.599824 19.3787 1.1295 24.9758C1.42802 25.8721 2.0104 26.6892 2.81865 27.3458C3.6269 28.0024 4.6328 28.4755 5.73616 28.718C9.77551 29.6128 26.0325 29.6128 26.0325 29.6128C26.0325 29.6128 42.2896 29.6128 46.3289 28.718C47.4323 28.4755 48.4382 28.0024 49.2464 27.3458C50.0547 26.6892 50.637 25.8721 50.9356 24.9758C52.224 19.1372 52.6213 10.2587 50.9021 4.63733" fill="#FF0000"/>
<path d="M20.8248 21.152L34.3112 14.8065L20.8248 8.46069V21.152Z" fill="white"/>
<path d="M156.39 8.59645C158.159 8.59645 159.494 8.86748 160.429 9.38265C161.364 9.898 162.031 10.7116 162.432 11.8235C162.833 12.9353 162.999 14.4537 162.999 16.4063V19.5793H154.42V20.5553L154.554 23.2401C154.654 23.8367 154.821 24.2707 155.088 24.5417C155.355 24.813 155.789 24.9485 156.356 24.9485C157.124 24.9485 157.659 24.7046 157.925 24.2166C158.226 23.7283 158.359 22.9147 158.393 21.8029L162.833 22.0199C162.866 22.1826 162.866 22.3996 162.866 22.6706C162.866 24.379 162.298 25.6538 161.13 26.4943C159.962 27.3348 158.359 27.7688 156.256 27.7688C153.719 27.7688 151.95 27.1181 150.948 25.8436C149.947 24.5689 149.413 22.562 149.413 19.8775V16.5961C149.526 11.9862 150.524 8.6099 156.39 8.59645ZM94.6664 8.94895V22.5351C94.6664 23.3487 94.7663 23.9453 95 24.2978C95.474 25.0517 96.7026 24.859 97.3702 24.4877C97.7555 24.2759 98.0661 23.9862 98.2715 23.6471V8.94869H103.379V27.4703H99.373L98.9391 25.1924H98.8391C97.7376 26.9008 96.1015 27.7685 93.9319 27.7685C90.5923 27.7618 89.7751 25.8071 89.5806 23.822L89.5678 23.6821C89.5438 23.3814 89.5297 23.0802 89.5255 22.7789V8.94895H94.6664ZM121.005 8.94895V22.5351C121.005 23.3487 121.105 23.9453 121.339 24.2978C121.813 25.0517 123.041 24.859 123.709 24.4877C124.094 24.2759 124.405 23.9862 124.61 23.6471V8.94869H129.717V27.4703H125.711L125.278 25.1924H125.178C124.076 26.9008 122.44 27.7685 120.27 27.7685C116.931 27.7618 116.114 25.8071 115.919 23.822L115.906 23.6821C115.882 23.3814 115.868 23.0802 115.864 22.7789V8.94895H121.005ZM79.8445 8.59645C81.5137 8.59645 82.8823 8.86748 83.8839 9.43696C84.8851 10.0064 85.653 10.8744 86.1203 12.0674C86.5877 13.2607 86.8214 14.8605 86.8214 16.8402V19.5247C86.8214 21.5045 86.5877 23.0774 86.1203 24.2704C85.653 25.4639 84.9185 26.3316 83.8839 26.9011C82.8492 27.4434 81.4468 27.7416 79.7111 27.7416C77.9082 27.7688 76.5062 27.4706 75.4715 26.9283C74.4369 26.3588 73.7021 25.4908 73.2685 24.2978C72.8342 23.1046 72.634 21.5316 72.634 19.5521V16.8671C72.634 14.8874 72.8677 13.2604 73.3684 12.0671C73.8692 10.847 74.6368 9.97903 75.7052 9.43696C76.7733 8.89438 78.1419 8.59619 79.8445 8.59619M137.729 1.16602V10.9284H137.763C138.23 10.2234 138.831 9.65395 139.666 9.21998C140.445 8.79444 141.363 8.56785 142.302 8.56929C143.538 8.56929 144.472 8.84033 145.173 9.3555C145.874 9.89809 146.375 10.7386 146.675 11.9047C146.967 13.0344 147.132 14.5967 147.142 16.5669L147.143 16.759V19.6877C147.143 22.4264 146.709 24.4605 145.908 25.7621C145.073 27.0638 143.805 27.7147 142.069 27.7147C141.101 27.7147 140.233 27.5249 139.432 27.1724C138.724 26.8368 138.136 26.3559 137.729 25.7779L137.662 25.6807H137.562L137.028 27.4434H132.789V1.16627L137.729 1.16602ZM117.299 2.11515V5.47748H112.225V27.4703H107.218V5.47774H102.111V2.11541L117.299 2.11515ZM62.252 2.11515L62.2552 2.1255C62.3039 2.30162 62.9788 4.73912 63.7212 7.57903L63.7798 7.80403L63.8683 8.14412L63.9275 8.37248L63.9571 8.48705L64.0163 8.71671L64.0459 8.83179L64.1048 9.06222L64.1908 9.39921C64.6922 11.3658 65.1707 13.338 65.4569 14.7521H65.5906C65.8647 13.4836 66.263 11.8602 66.6877 10.2027L66.7991 9.76981C66.8549 9.55291 66.9112 9.33636 66.9678 9.12015L67.0551 8.78472C67.6318 6.58821 68.2257 4.39472 68.8369 2.20438L68.8465 2.16946L68.8618 2.11515H73.9692L68.0604 19.2268V27.4434H63.0199V19.2537H62.9864L57.1445 2.1149L62.252 2.11515ZM79.7442 11.4708C79.0432 11.4708 78.5758 11.7692 78.2756 12.393C77.9754 13.0168 77.8417 13.9657 77.8417 15.2947V21.0708C77.8417 22.4267 77.9751 23.4299 78.2422 24.0268C78.5094 24.6233 79.0101 24.9216 79.7442 24.9216C80.4453 24.9216 80.946 24.6233 81.2466 24.0268C81.5471 23.4299 81.6805 22.4267 81.6805 21.0708V15.2945C81.6805 13.9657 81.5468 12.9894 81.2466 12.3927C80.946 11.7692 80.4453 11.4708 79.7442 11.4708ZM138.631 12.0133C138.224 12.3185 137.934 12.6948 137.762 13.1652L137.729 13.2607V23.7824C138.143 24.3519 138.731 24.7315 139.765 24.7587C140.299 24.7587 140.734 24.596 141.068 24.2707C141.401 23.9453 141.635 23.4029 141.768 22.6434C141.897 21.9146 141.963 20.9108 141.969 19.6321V17.0572C141.969 15.5929 141.902 14.4811 141.802 13.6946C141.668 12.9082 141.501 12.3387 141.201 12.0133C140.62 11.3352 139.365 11.3435 138.631 12.0133ZM156.29 11.3896C155.722 11.4166 155.321 11.5522 155.088 11.7964C154.821 12.0674 154.654 12.4742 154.554 13.0708C154.456 13.6553 154.422 15.6984 154.42 15.7802V17.1115H158.159V15.9374V15.9599C158.157 16.3703 158.146 15.7217 158.123 14.9254L158.12 14.8183C158.099 14.1185 158.069 13.3383 158.026 13.0708C157.925 12.4471 157.758 12.0131 157.491 11.7692C157.224 11.5251 156.824 11.3896 156.29 11.3896" fill="#282828"/>
</g>
<defs>
<clipPath id="clip0_184_560">
<rect width="163" height="30" fill="white"/>
</clipPath>
</defs>
</svg>
